<svg width="57" height="57" viewBox="0 0 57 57" fill="none" xmlns="http://www.w3.org/2000/svg">
<path d="M57 28.5C57 44.2401 44.2401 57 28.5 57C12.7599 57 0 44.2401 0 28.5C0 12.7599 12.7599 0 28.5 0C44.2401 0 57 12.7599 57 28.5Z" fill="url(#paint0_linear_231_66)" fill-opacity="0.5"/>
<path d="M42 30.5C42 37.9558 35.9558 44 28.5 44C21.0442 44 15 37.9558 15 30.5C15 23.0442 21.0442 17 28.5 17C35.9558 17 42 23.0442 42 30.5Z" fill="white"/>
<path d="M22.322 30.5C22.322 27.3407 24.8831 24.7797 28.0424 24.7797H28.5C31.6593 24.7797 34.2203 27.3407 34.2203 30.5C34.2203 33.6593 31.6593 36.2203 28.5 36.2203H28.0424C24.8831 36.2203 22.322 33.6593 22.322 30.5Z" fill="url(#paint1_linear_231_66)"/>
<defs>
<linearGradient id="paint0_linear_231_66" x1="28.5" y1="-14.5" x2="28.5" y2="80.5" gradientUnits="userSpaceOnUse">
<stop stop-color="#FF7A00"/>
<stop offset="1" stop-color="#FF0000" stop-opacity="0"/>
</linearGradient>
<linearGradient id="paint1_linear_231_66" x1="23.9237" y1="25.9105" x2="32.78" y2="32.2079" gradientUnits="userSpaceOnUse">
<stop stop-color="#FF0000"/>
<stop offset="1" stop-color="#FF8A00"/>
</linearGradient>
</defs>
</svg>
